<svg xmlns="http://www.w3.org/2000/svg" viewBox="0 0 800 520" fill="none">
  <defs>
    <linearGradient id="bg" x1="0" y1="0" x2="800" y2="520" gradientUnits="userSpaceOnUse">
      <stop offset="0%" stop-color="#f8fafc"/>
      <stop offset="100%" stop-color="#f1f5f9"/>
    </linearGradient>
    <linearGradient id="accent" x1="0" y1="0" x2="1" y2="1">
      <stop offset="0%" stop-color="#2563eb"/>
      <stop offset="100%" stop-color="#1e40af"/>
    </linearGradient>
    <filter id="shadow" x="-4%" y="-4%" width="108%" height="116%">
      <feDropShadow dx="0" dy="2" stdDeviation="6" flood-color="#0f172a" flood-opacity="0.08"/>
    </filter>
    <filter id="shadow-sm" x="-4%" y="-4%" width="108%" height="116%">
      <feDropShadow dx="0" dy="1" stdDeviation="3" flood-color="#0f172a" flood-opacity="0.06"/>
    </filter>
  </defs>

  <!-- Background -->
  <rect width="800" height="520" rx="16" fill="url(#bg)"/>

  <!-- Header -->
  <text x="400" y="38" text-anchor="middle" font-family="Inter, system-ui, sans-serif" font-size="11" font-weight="600" fill="#94a3b8" letter-spacing="2">ESTRUCTURA ORGANIZACIONAL</text>
  <line x1="340" y1="48" x2="460" y2="48" stroke="#e2e8f0" stroke-width="1"/>

  <!-- Connection lines -->
  <!-- CEO to VPs -->
  <path d="M400 120 L400 150 L400 170" stroke="#cbd5e1" stroke-width="1.5" stroke-dasharray="4 3"/>
  <path d="M400 150 L160 150 L160 170" stroke="#cbd5e1" stroke-width="1.5" stroke-dasharray="4 3"/>
  <path d="M400 150 L640 150 L640 170" stroke="#cbd5e1" stroke-width="1.5" stroke-dasharray="4 3"/>

  <!-- VP Ops to departments -->
  <path d="M160 240 L160 265 L160 280" stroke="#cbd5e1" stroke-width="1.5" stroke-dasharray="4 3"/>
  <path d="M160 265 L80 265 L80 280" stroke="#cbd5e1" stroke-width="1.5" stroke-dasharray="4 3"/>

  <!-- VP Comercial to departments -->
  <path d="M400 240 L400 265 L400 280" stroke="#cbd5e1" stroke-width="1.5" stroke-dasharray="4 3"/>
  <path d="M400 265 L320 265 L320 280" stroke="#cbd5e1" stroke-width="1.5" stroke-dasharray="4 3"/>

  <!-- VP Admin to departments -->
  <path d="M640 240 L640 265 L640 280" stroke="#cbd5e1" stroke-width="1.5" stroke-dasharray="4 3"/>
  <path d="M640 265 L720 265 L720 280" stroke="#cbd5e1" stroke-width="1.5" stroke-dasharray="4 3"/>

  <!-- Teams lines -->
  <path d="M80 350 L80 375 L80 390" stroke="#e2e8f0" stroke-width="1"/>
  <path d="M160 350 L160 375 L160 390" stroke="#e2e8f0" stroke-width="1"/>
  <path d="M320 350 L320 375 L320 390" stroke="#e2e8f0" stroke-width="1"/>
  <path d="M400 350 L400 375 L400 390" stroke="#e2e8f0" stroke-width="1"/>
  <path d="M640 350 L640 375 L640 390" stroke="#e2e8f0" stroke-width="1"/>
  <path d="M720 350 L720 375 L720 390" stroke="#e2e8f0" stroke-width="1"/>

  <!-- CEO Card -->
  <rect x="310" y="62" width="180" height="58" rx="12" fill="url(#accent)" filter="url(#shadow)"/>
  <text x="400" y="87" text-anchor="middle" font-family="Inter, system-ui, sans-serif" font-size="13" font-weight="700" fill="white">Director General</text>
  <text x="400" y="106" text-anchor="middle" font-family="Inter, system-ui, sans-serif" font-size="10.5" fill="#93c5fd">CEO / Fundador</text>

  <!-- VP Level -->
  <rect x="68" y="170" width="184" height="70" rx="10" fill="white" filter="url(#shadow)" stroke="#e2e8f0" stroke-width="1"/>
  <rect x="68" y="170" width="184" height="4" rx="2" fill="#2563eb"/>
  <text x="160" y="200" text-anchor="middle" font-family="Inter, system-ui, sans-serif" font-size="12" font-weight="700" fill="#0f172a">Dir. Operaciones</text>
  <text x="160" y="218" text-anchor="middle" font-family="Inter, system-ui, sans-serif" font-size="10" fill="#64748b">Procesos y produccion</text>
  <text x="160" y="232" text-anchor="middle" font-family="Inter, system-ui, sans-serif" font-size="9" fill="#94a3b8">4 reportes directos</text>

  <rect x="308" y="170" width="184" height="70" rx="10" fill="white" filter="url(#shadow)" stroke="#e2e8f0" stroke-width="1"/>
  <rect x="308" y="170" width="184" height="4" rx="2" fill="#2563eb"/>
  <text x="400" y="200" text-anchor="middle" font-family="Inter, system-ui, sans-serif" font-size="12" font-weight="700" fill="#0f172a">Dir. Comercial</text>
  <text x="400" y="218" text-anchor="middle" font-family="Inter, system-ui, sans-serif" font-size="10" fill="#64748b">Ventas y marketing</text>
  <text x="400" y="232" text-anchor="middle" font-family="Inter, system-ui, sans-serif" font-size="9" fill="#94a3b8">3 reportes directos</text>

  <rect x="548" y="170" width="184" height="70" rx="10" fill="white" filter="url(#shadow)" stroke="#e2e8f0" stroke-width="1"/>
  <rect x="548" y="170" width="184" height="4" rx="2" fill="#2563eb"/>
  <text x="640" y="200" text-anchor="middle" font-family="Inter, system-ui, sans-serif" font-size="12" font-weight="700" fill="#0f172a">Dir. Administracion</text>
  <text x="640" y="218" text-anchor="middle" font-family="Inter, system-ui, sans-serif" font-size="10" fill="#64748b">Finanzas y talento</text>
  <text x="640" y="232" text-anchor="middle" font-family="Inter, system-ui, sans-serif" font-size="9" fill="#94a3b8">3 reportes directos</text>

  <!-- Department Level -->
  <rect x="18" y="280" width="124" height="70" rx="8" fill="white" filter="url(#shadow-sm)" stroke="#e2e8f0" stroke-width="1"/>
  <circle cx="42" cy="302" r="4" fill="#22c55e"/>
  <text x="52" y="306" font-family="Inter, system-ui, sans-serif" font-size="10.5" font-weight="600" fill="#0f172a">Produccion</text>
  <text x="80" y="322" text-anchor="middle" font-family="Inter, system-ui, sans-serif" font-size="9" fill="#64748b">Coord. operativo</text>
  <text x="80" y="338" text-anchor="middle" font-family="Inter, system-ui, sans-serif" font-size="8.5" fill="#94a3b8">8 colaboradores</text>

  <rect x="98" y="280" width="124" height="70" rx="8" fill="white" filter="url(#shadow-sm)" stroke="#e2e8f0" stroke-width="1"/>
  <circle cx="122" cy="302" r="4" fill="#22c55e"/>
  <text x="132" y="306" font-family="Inter, system-ui, sans-serif" font-size="10.5" font-weight="600" fill="#0f172a">Logistica</text>
  <text x="160" y="322" text-anchor="middle" font-family="Inter, system-ui, sans-serif" font-size="9" fill="#64748b">Coord. logistico</text>
  <text x="160" y="338" text-anchor="middle" font-family="Inter, system-ui, sans-serif" font-size="8.5" fill="#94a3b8">5 colaboradores</text>

  <rect x="258" y="280" width="124" height="70" rx="8" fill="white" filter="url(#shadow-sm)" stroke="#e2e8f0" stroke-width="1"/>
  <circle cx="282" cy="302" r="4" fill="#f59e0b"/>
  <text x="292" y="306" font-family="Inter, system-ui, sans-serif" font-size="10.5" font-weight="600" fill="#0f172a">Ventas</text>
  <text x="320" y="322" text-anchor="middle" font-family="Inter, system-ui, sans-serif" font-size="9" fill="#64748b">Gte. ventas</text>
  <text x="320" y="338" text-anchor="middle" font-family="Inter, system-ui, sans-serif" font-size="8.5" fill="#94a3b8">6 vendedores</text>

  <rect x="338" y="280" width="124" height="70" rx="8" fill="white" filter="url(#shadow-sm)" stroke="#e2e8f0" stroke-width="1"/>
  <circle cx="362" cy="302" r="4" fill="#f59e0b"/>
  <text x="372" y="306" font-family="Inter, system-ui, sans-serif" font-size="10.5" font-weight="600" fill="#0f172a">Marketing</text>
  <text x="400" y="322" text-anchor="middle" font-family="Inter, system-ui, sans-serif" font-size="9" fill="#64748b">Coord. mktg</text>
  <text x="400" y="338" text-anchor="middle" font-family="Inter, system-ui, sans-serif" font-size="8.5" fill="#94a3b8">2 colaboradores</text>

  <rect x="578" y="280" width="124" height="70" rx="8" fill="white" filter="url(#shadow-sm)" stroke="#e2e8f0" stroke-width="1"/>
  <circle cx="602" cy="302" r="4" fill="#8b5cf6"/>
  <text x="612" y="306" font-family="Inter, system-ui, sans-serif" font-size="10.5" font-weight="600" fill="#0f172a">Finanzas</text>
  <text x="640" y="322" text-anchor="middle" font-family="Inter, system-ui, sans-serif" font-size="9" fill="#64748b">Contador</text>
  <text x="640" y="338" text-anchor="middle" font-family="Inter, system-ui, sans-serif" font-size="8.5" fill="#94a3b8">2 colaboradores</text>

  <rect x="658" y="280" width="124" height="70" rx="8" fill="white" filter="url(#shadow-sm)" stroke="#e2e8f0" stroke-width="1"/>
  <circle cx="682" cy="302" r="4" fill="#8b5cf6"/>
  <text x="692" y="306" font-family="Inter, system-ui, sans-serif" font-size="10.5" font-weight="600" fill="#0f172a">R.H.</text>
  <text x="720" y="322" text-anchor="middle" font-family="Inter, system-ui, sans-serif" font-size="9" fill="#64748b">Coord. talento</text>
  <text x="720" y="338" text-anchor="middle" font-family="Inter, system-ui, sans-serif" font-size="8.5" fill="#94a3b8">1 colaborador</text>

  <!-- Team indicators -->
  <rect x="30" y="390" width="100" height="32" rx="6" fill="#f0fdf4" stroke="#bbf7d0" stroke-width="1"/>
  <text x="80" y="410" text-anchor="middle" font-family="Inter, system-ui, sans-serif" font-size="8.5" font-weight="600" fill="#16a34a">Equipo planta</text>

  <rect x="110" y="390" width="100" height="32" rx="6" fill="#f0fdf4" stroke="#bbf7d0" stroke-width="1"/>
  <text x="160" y="410" text-anchor="middle" font-family="Inter, system-ui, sans-serif" font-size="8.5" font-weight="600" fill="#16a34a">Repartidores</text>

  <rect x="270" y="390" width="100" height="32" rx="6" fill="#fffbeb" stroke="#fde68a" stroke-width="1"/>
  <text x="320" y="410" text-anchor="middle" font-family="Inter, system-ui, sans-serif" font-size="8.5" font-weight="600" fill="#d97706">Fuerza de venta</text>

  <rect x="350" y="390" width="100" height="32" rx="6" fill="#fffbeb" stroke="#fde68a" stroke-width="1"/>
  <text x="400" y="410" text-anchor="middle" font-family="Inter, system-ui, sans-serif" font-size="8.5" font-weight="600" fill="#d97706">Community mgr</text>

  <rect x="590" y="390" width="100" height="32" rx="6" fill="#f5f3ff" stroke="#ddd6fe" stroke-width="1"/>
  <text x="640" y="410" text-anchor="middle" font-family="Inter, system-ui, sans-serif" font-size="8.5" font-weight="600" fill="#7c3aed">Contabilidad</text>

  <rect x="670" y="390" width="100" height="32" rx="6" fill="#f5f3ff" stroke="#ddd6fe" stroke-width="1"/>
  <text x="720" y="410" text-anchor="middle" font-family="Inter, system-ui, sans-serif" font-size="8.5" font-weight="600" fill="#7c3aed">Reclutamiento</text>

  <!-- Footer stats -->
  <line x1="60" y1="455" x2="740" y2="455" stroke="#e2e8f0" stroke-width="1"/>
  <rect x="100" y="468" width="130" height="36" rx="8" fill="white" filter="url(#shadow-sm)" stroke="#e2e8f0" stroke-width="1"/>
  <text x="165" y="484" text-anchor="middle" font-family="Inter, system-ui, sans-serif" font-size="14" font-weight="800" fill="#0f172a">27</text>
  <text x="165" y="498" text-anchor="middle" font-family="Inter, system-ui, sans-serif" font-size="8" fill="#94a3b8">COLABORADORES</text>

  <rect x="260" y="468" width="130" height="36" rx="8" fill="white" filter="url(#shadow-sm)" stroke="#e2e8f0" stroke-width="1"/>
  <text x="325" y="484" text-anchor="middle" font-family="Inter, system-ui, sans-serif" font-size="14" font-weight="800" fill="#0f172a">3</text>
  <text x="325" y="498" text-anchor="middle" font-family="Inter, system-ui, sans-serif" font-size="8" fill="#94a3b8">DIRECCIONES</text>

  <rect x="420" y="468" width="130" height="36" rx="8" fill="white" filter="url(#shadow-sm)" stroke="#e2e8f0" stroke-width="1"/>
  <text x="485" y="484" text-anchor="middle" font-family="Inter, system-ui, sans-serif" font-size="14" font-weight="800" fill="#0f172a">6</text>
  <text x="485" y="498" text-anchor="middle" font-family="Inter, system-ui, sans-serif" font-size="8" fill="#94a3b8">DEPARTAMENTOS</text>

  <rect x="580" y="468" width="130" height="36" rx="8" fill="white" filter="url(#shadow-sm)" stroke="#e2e8f0" stroke-width="1"/>
  <text x="645" y="484" text-anchor="middle" font-family="Inter, system-ui, sans-serif" font-size="14" font-weight="800" fill="#2563eb">CURVA.</text>
  <text x="645" y="498" text-anchor="middle" font-family="Inter, system-ui, sans-serif" font-size="8" fill="#94a3b8">CONSULTORIA</text>
</svg>